<svg width="380" height="66" viewBox="0 0 380 66" fill="none" xmlns="http://www.w3.org/2000/svg">
<path d="M309.56 2.54071L317.323 2.29224C325.915 2.01893 338.727 1.64622 349.203 1.37291C347.092 1.39775 344.982 1.44745 342.91 1.47229C335.373 1.57168 305.415 0.900813 269.428 0.652344L269.918 0.726885C280.695 2.09347 298.557 2.91342 309.56 2.54071Z" fill="url(#paint0_radial_12_7818)"/>
<path d="M287.305 13.7702C274.267 13.6459 261.116 13.2235 248.228 12.7018C251.77 12.9751 256.443 13.4223 261.53 14.0186L269.82 14.9628C280.635 16.2052 298.535 17.2736 309.576 17.3233H317.527C328.568 17.3978 346.655 17.2487 357.696 17.0251L365.572 16.8512C369.152 16.7767 373.523 16.6773 378.121 16.553C377.706 15.6834 377.216 14.8386 376.915 13.969C376.689 13.4223 376.839 12.4284 377.103 11.2109C347.183 13.2235 317.15 14.0932 287.305 13.7702Z" fill="url(#paint1_radial_12_7818)"/>
<path d="M357.554 30.261C346.513 29.938 328.463 29.9131 317.422 30.2113L309.546 30.4101C298.505 30.6834 280.493 31.5282 269.527 32.2736L261.011 32.8451C250.045 33.5905 232.146 33.3669 221.255 32.373L212.437 31.5779C201.547 30.584 183.572 29.7392 172.531 29.7144H164.806C153.765 29.6647 135.715 30.1616 124.75 30.8076L117.402 31.23C120.831 31.4785 124.26 31.7021 127.651 31.9506C147.435 33.3917 167.18 34.8577 186.964 36.2988C206.747 37.8393 226.154 39.2556 245.787 38.0381C255.66 37.5412 265.721 36.7709 276.008 36.5224C286.333 36.274 296.621 36.6715 306.757 37.243C326.993 38.3611 347.342 40.1252 367.766 37.9139C347.53 41.1191 326.239 40.1252 305.966 39.7277C295.754 39.5041 285.693 39.4544 275.782 40.0259C265.872 40.5725 255.961 41.6161 245.824 42.3615C241.755 42.6845 237.61 42.8833 233.464 43.0075C242.998 42.9578 253.625 42.7839 261.086 42.5106L269.112 42.2124C280.153 41.8148 298.203 41.467 309.244 41.4173H317.158C328.199 41.3427 346.287 41.1688 357.328 40.9949L365.618 40.8706C368.821 40.821 372.627 40.7961 376.659 40.821C376.697 39.4295 376.772 38.0132 376.81 36.6218C370.969 36.3485 365.241 35.8516 359.664 35.4043C353.785 34.9074 347.982 34.3607 342.066 34.0129C336.15 33.6899 330.121 33.5159 323.865 34.2365C329.593 32.5966 336.037 32.0003 342.254 31.876C348.51 31.7518 354.614 32.0748 360.568 32.5966C366.221 33.0687 371.722 33.7396 377.224 34.4353C377.563 33.2923 377.902 32.0997 377.563 31.23C377.488 31.0313 377.375 30.8573 377.262 30.7082C372.928 30.6834 368.821 30.6337 365.429 30.5343L357.441 30.3107L357.554 30.261Z" fill="url(#paint2_radial_12_7818)"/>
<path d="M357.444 21.2412C346.403 21.3654 328.315 21.2909 317.274 21.0921L309.059 20.943C298.018 20.7443 288.974 20.4958 288.937 20.4212C288.937 20.3219 280.006 19.3777 269.116 18.2844L260.712 17.4396C249.822 16.3463 231.923 15.8494 220.919 16.2967L212.968 16.6445C201.965 17.1166 183.915 17.3899 172.836 17.2408L165.149 17.1415C154.108 17.0172 136.209 17.862 125.356 19.0547L116.086 20.0734C105.233 21.266 87.5979 21.0424 76.8583 19.5765L67.513 18.3093C56.7734 16.8433 38.9872 16.0482 27.9838 16.5451L20.4096 16.893C16.0384 17.0918 8.57439 17.3402 2.92198 17.6135C2.46978 19.2534 2.58283 21.0673 4.6177 22.2351C14.679 22.4339 26.7026 22.5332 36.7639 22.3096C40.8713 22.2351 44.8657 22.0115 49.0861 21.9121C53.2689 21.7878 57.4517 21.8127 61.6345 21.8624C69.9624 22.0115 78.2526 22.409 86.5805 22.7569C103.123 23.4029 120.08 24.0489 136.51 21.5145C120.156 24.5707 102.746 24.3222 86.0529 24.0241C77.6497 23.8501 69.3218 23.6265 61.0692 23.6514C52.779 23.6017 44.7526 24.198 36.3494 24.521C28.2476 24.7943 9.186 24.8689 1.1219 24.8192C1.04653 25.1173 0.820434 25.4155 0.669703 25.6888C0.0290964 26.9312 1.87555 28.1487 4.21188 28.7201C5.60614 29.0431 7.15113 29.1922 8.73381 29.2668C14.3485 28.4965 31.1492 27.7759 37.2161 27.5026C47.7296 26.9808 58.0923 27.3784 68.1536 27.9747C76.6322 28.5214 85.0732 29.068 93.4764 29.6395C101.729 29.7389 110.321 29.6395 116.651 29.2916L124.602 28.8444C135.606 28.248 153.618 27.3535 164.621 26.8566L172.987 26.4839C183.99 26.0118 193.072 25.8876 193.185 26.2106C193.26 26.5336 202.229 27.7511 213.081 28.8941L221.447 29.7637C232.3 30.9067 250.161 31.18 261.089 30.3352L269.116 29.7389C280.081 28.9189 298.056 28.1487 309.097 28.0244L317.387 27.9499C327.072 27.8505 342.22 27.8008 353.223 27.8256C352.168 27.7759 351.113 27.7511 350.02 27.6766C339.997 27.0802 330.162 26.0615 320.326 25.0676C310.491 24.0738 300.656 23.1047 290.67 22.6575C280.684 22.2351 270.51 22.3593 260.449 23.5768C270.284 21.9121 280.646 21.3157 290.858 21.3406C301.108 21.3903 311.207 22.0115 321.193 22.6575C331.179 23.3035 341.052 23.9992 350.812 24.2477C355.334 24.3968 359.856 24.3968 364.377 24.2974C364.867 24.1731 365.395 24.0489 365.885 23.9744C369.465 23.4277 373.007 22.8811 376.587 22.3345C377.077 22.2599 377.604 22.1854 378.019 21.9866C378.471 21.763 378.659 21.44 378.81 21.117C373.949 21.1418 369.352 21.1915 365.583 21.2412L357.406 21.3406L357.444 21.2412ZM265.083 25.2167C261.767 26.2106 257.849 26.633 254.043 26.5584C250.199 26.5088 246.468 26.0615 242.926 25.49C235.766 24.3471 229.36 22.8811 222.577 22.5829C215.757 22.1854 208.673 22.3345 201.362 22.2102C194.089 22.086 186.364 21.6884 179.431 19.9492C194.353 21.4897 208.258 18.8062 223.256 19.7504C230.905 20.1231 237.801 21.9866 244.283 23.4774C250.802 24.9682 257.698 26.2851 265.046 25.2167H265.083Z" fill="url(#paint3_radial_12_7818)"/>
<path d="M357.553 44.8044C346.512 45.2019 328.461 45.5498 317.42 45.5995H309.545C298.504 45.6492 280.416 45.5995 269.375 45.4752L261.16 45.4007C250.119 45.2765 232.031 45.4504 221.028 45.7734L212.889 46.0219C201.848 46.3449 183.797 46.5188 172.756 46.4194L164.73 46.3449C153.689 46.2455 135.677 45.5498 124.711 44.8044L116.571 44.2577C105.606 43.5123 87.8196 44.0838 77.08 45.5001L67.7347 46.7424C56.9951 48.1587 39.4726 48.0096 28.8084 46.3946L19.4631 44.9783C16.3731 44.5062 12.6802 44.1832 8.79887 43.9596C9.06265 45.1522 9.36411 46.32 9.5902 47.4879C13.2077 47.7115 16.7876 48.0593 20.2921 48.606C24.2111 49.2271 28.1678 49.7241 32.1998 50.1465C48.2904 51.8112 64.9838 51.3391 81.715 50.7677C64.9461 51.8361 48.102 52.7306 31.4839 51.364C27.3388 51.0161 23.2314 50.5689 19.1993 50.0222C16.147 49.6247 13.057 49.3762 9.92935 49.2271C10.0801 50.4943 10.0801 51.7367 9.77862 52.979C13.4715 53.2772 16.976 53.6002 19.9153 53.9729L28.8461 55.1159C39.6233 56.4825 57.2589 56.557 68.0738 55.2898L76.2133 54.3208C87.0282 53.0287 104.89 51.8609 115.931 51.7118L124.786 51.5876C135.564 51.4385 152.973 51.9106 163.976 52.656C157.533 51.9852 151.089 51.1404 144.683 49.9974C164.052 51.4385 182.554 51.5628 200.981 51.5628C219.408 51.4882 237.835 51.2149 257.128 50.7677C246.991 52.0348 236.968 52.9542 226.982 53.5754C237.835 53.4263 252.041 53.799 261.273 54.5195L269.3 55.1656C280.228 56.0352 298.052 55.7122 308.866 54.4698L317.647 53.4511C328.461 52.2088 346.323 51.5876 357.364 52.0597L366.069 52.4324C366.747 52.4572 367.538 52.4821 368.254 52.5318C368.217 52.2088 368.179 51.9106 368.066 51.5876C367.991 51.364 367.878 51.1652 367.727 50.9664C363.657 51.0907 359.587 51.19 355.48 51.2894C323.713 52.1342 291.532 52.7306 258.598 53.1281C291.419 50.8422 323.563 48.8047 355.292 47.0158C362.037 46.6431 368.744 46.2703 375.452 45.8976C375.678 45.7734 375.904 45.6492 376.055 45.4752C376.394 45.1274 376.545 44.7298 376.62 44.3323C372.588 44.3571 368.744 44.4317 365.541 44.5559L357.59 44.8541L357.553 44.8044Z" fill="url(#paint4_radial_12_7818)"/>
<path d="M345.377 56.7017C346.734 56.2048 348.166 55.7824 349.598 55.4345C339.235 55.36 326.611 56.1551 318.321 57.5216L308.749 59.087C298.161 60.8263 280.525 61.5469 269.597 60.7021L260.742 60.0063C249.814 59.1615 231.801 58.6398 220.76 58.8882L212.696 59.0622C201.655 59.3106 183.68 58.7143 172.79 57.7204L164.312 56.9502C153.421 55.9811 135.447 55.4097 124.406 55.7078L116.605 55.9066C105.564 56.2048 87.6272 57.298 76.7368 58.3664L67.7307 59.2361C56.8404 60.3045 39.1295 60.0063 28.3899 58.5901L19.233 57.3726C15.9923 56.9502 12.0733 56.5775 7.92816 56.2545C7.28755 57.1986 6.76 58.2174 7.92816 58.9876C8.79486 59.5591 10.3022 59.8076 11.8095 60.0063C50.0575 60.6524 87.7779 62.4662 125.272 63.3855C147.204 63.957 169.022 64.1309 190.953 63.8328C212.885 63.5595 234.929 62.9134 257.124 62.3917C288.137 61.6711 319.64 61.2238 351.293 62.3917C352.386 60.8014 353.78 59.3852 356.644 58.5901C359.659 57.7701 367.761 59.9318 367.987 56.9502C366.592 56.9502 365.236 56.9502 363.879 56.9502C357.775 56.9005 351.972 56.3538 345.264 56.6769L345.377 56.7017Z" fill="url(#paint5_radial_12_7818)"/>
<path d="M24.9496 42.5026C35.9048 44.0226 53.9715 44.4348 65.0805 43.4043L73.7294 42.6056C84.8384 41.5751 103.174 40.9568 114.437 41.2144L123.047 41.4205C134.31 41.6781 152.723 42.0388 163.986 42.2449L171.866 42.3738C181.091 42.5283 195.045 42.7344 206 42.889C198.658 42.5541 191.431 42.0904 184.243 41.6266C163.986 40.3127 143.843 38.9214 123.662 37.4529C103.559 35.9587 83.4162 34.4386 63.2354 32.9443C53.2411 32.223 43.3621 31.7334 33.5985 32.0941C27.7557 32.2745 13.836 32.9443 7.7625 33.6657C7.14747 34.2583 7.07059 34.9539 7.91626 35.4434C3.91855 35.9587 8.03615 36.68 4.34595 37.5817C4.07687 38.4835 3.99999 39.3852 3.99999 40.2869C8.22835 40.4673 4.18762 40.7764 7.53187 41.2402L24.9111 42.5283L24.9496 42.5026Z" fill="url(#paint6_radial_12_7818)"/>
<path d="M5.9875 13.9381C10.9993 13.7145 15.785 13.4909 19.6663 13.2921L28.371 12.8449C39.3744 12.2982 57.3114 12.5467 68.2394 13.4412L76.6426 14.1121C87.5706 15.0066 105.508 15.0811 116.436 14.3108L124.613 13.7394C128.833 13.4412 134.147 13.1927 139.648 13.0436C128.946 12.5219 118.244 12.0995 107.505 11.7765C73.1381 10.7826 38.6208 10.6086 3.91495 10.6832C4.14104 10.7577 4.32946 10.8074 4.59324 10.8571C5.83677 11.7019 6.10055 12.7952 5.94982 13.9381H5.9875Z" fill="url(#paint7_radial_12_7818)"/>
<path d="M122.417 1.09766C121.287 1.09766 120.156 1.14735 118.988 1.1722C119.214 1.22189 119.44 1.27159 119.666 1.32128L122.417 1.1225V1.09766Z" fill="url(#paint8_radial_12_7818)"/>
<path d="M221.324 13.4914C232.365 13.392 241.522 12.9696 241.635 12.5224C241.635 12.4727 241.786 12.4478 241.974 12.423C241.974 12.423 241.899 12.423 241.861 12.423C234.438 12.1497 227.429 12.1497 220.307 12.7957C217.707 13.0193 215.106 13.2926 212.431 13.5659C212.657 13.5659 212.921 13.5659 213.147 13.5659L221.324 13.4914Z" fill="url(#paint9_radial_12_7818)"/>
<path d="M173.259 2.88865C184.037 4.20554 201.521 3.80799 212.073 2.01901L219.609 0.726965C210 0.826353 200.504 1.00028 191.309 1.24875C190.405 0.900894 189.274 0.702118 188.144 0.553036C186.411 0.329414 184.677 0.205179 182.981 0.105791C180.72 0.105791 178.459 0.105791 176.199 0.03125C173.485 0.0809439 170.772 0.180332 167.946 0.254873C161.163 0.453648 154.418 0.553036 147.635 0.652424C153.777 0.8512 159.731 1.24875 164.404 1.82023L173.297 2.9135L173.259 2.88865Z" fill="url(#paint10_radial_12_7818)"/>
<path d="M28.0898 4.77279L20.2894 4.89702C15.2023 4.97156 8.60778 5.19518 1.93793 5.4685C21.9852 5.24488 41.9947 5.14549 62.0042 5.26973C51.227 4.84733 37.2467 4.6237 28.0521 4.77279H28.0898Z" fill="url(#paint11_radial_12_7818)"/>
<path d="M377.007 0.848304C377.007 0.848304 376.743 0.699222 376.555 0.674375C374.369 0.152589 372.937 0.674375 370.902 0.873151C370.827 0.873151 370.714 0.873151 370.639 0.873151C372.636 0.873151 374.784 0.848304 376.969 0.848304H377.007Z" fill="url(#paint12_radial_12_7818)"/>
<path d="M365.391 5.26585L357.817 5.36523C346.776 5.51431 328.688 5.6634 317.647 5.68824H309.281C298.24 5.73794 280.266 5.06707 269.3 4.17258L261.047 3.50171C250.119 2.63207 232.371 3.07931 221.631 4.52044L212.437 5.76278C201.697 7.20391 184.024 7.42753 173.171 6.28457L164.316 5.34039C153.463 4.17258 135.639 3.94896 124.711 4.8186L116.421 5.48947C113.595 5.71309 110.316 5.91187 106.774 6.0361C107.603 6.0361 108.432 6.06095 109.299 6.08579C124.334 6.53304 139.37 7.20391 154.368 8.0984C169.365 8.99289 183.986 10.2352 198.155 9.41529C205.239 9.01774 212.55 8.0984 220.312 7.55176C228.15 6.95544 236.214 7.15421 243.789 7.55176C258.824 8.39656 273.633 9.09228 288.669 9.46498C318.137 10.2352 347.793 9.91223 377.675 8.59534C377.939 7.50207 378.203 6.35911 378.316 5.29069C373.568 5.21615 369.084 5.1913 365.391 5.241V5.26585Z" fill="url(#paint13_radial_12_7818)"/>
<path d="M116.261 1.53785L117.957 1.41362C117.316 1.33908 116.713 1.26454 116.073 1.21484C105.71 1.41362 94.1413 1.66209 83.4017 1.83602C93.9906 2.30811 107.368 2.23357 116.223 1.53785H116.261Z" fill="url(#paint14_radial_12_7818)"/>
<path d="M324.327 64.9009C332.617 64.6027 340.455 64.6276 348.896 64.9506C349.198 64.9506 349.499 64.9506 349.725 64.8512C349.914 64.7767 349.989 64.6276 350.065 64.5033C350.178 64.3543 350.253 64.1803 350.366 64.0312C333.183 64.0312 316.15 64.4288 299.193 65.0251C312.005 65.0251 321.765 64.9754 324.327 64.876V64.9009Z" fill="url(#paint15_radial_12_7818)"/>
<path d="M173.167 53.2475C184.132 54.0177 202.107 54.3159 213.148 53.9183L221.25 53.6202C222.983 53.5456 224.905 53.5208 226.902 53.4959C236.888 52.8748 246.912 51.9554 257.048 50.6882C237.755 51.1355 219.328 51.4336 200.901 51.4833C182.474 51.4833 163.972 51.3839 144.603 49.918C151.009 51.0609 157.453 51.9306 163.897 52.5766C164.16 52.5766 164.462 52.6014 164.688 52.6263L173.129 53.2226L173.167 53.2475Z" fill="#CC6D2D"/>
<path d="M244.283 23.4827C237.802 21.9919 230.906 20.1284 223.256 19.7557C208.221 18.8363 194.354 21.5198 179.431 19.9545C186.365 21.6937 194.09 22.0913 201.363 22.2155C208.673 22.3398 215.795 22.1658 222.578 22.5882C229.361 22.8864 235.767 24.3524 242.927 25.4953C246.469 26.042 250.199 26.514 254.043 26.5637C257.849 26.6134 261.768 26.2159 265.084 25.222C257.736 26.3153 250.84 24.9735 244.321 23.4827H244.283Z" fill="#CC6D2D"/>
<path d="M61.0702 23.5782C69.3228 23.5782 77.6506 23.777 86.0539 23.9509C102.747 24.2491 120.157 24.4976 136.511 21.4414C120.081 24.0006 103.086 23.3298 86.5814 22.6838C78.2912 22.3359 70.001 21.9383 61.6355 21.7893C57.4527 21.7396 53.2699 21.7147 49.0871 21.839C44.8667 21.9632 40.8723 22.162 36.7649 22.2365C26.7413 22.4601 8.67997 22.3359 -1.38132 22.162C-1.00449 22.3856 -0.589979 22.5844 -0.0624208 22.7334C1.59562 23.2801 4.15805 23.6031 4.19573 24.597C4.19573 24.6467 4.15805 24.6964 4.15805 24.7212C12.1845 24.7461 28.2863 24.7212 36.388 24.423C44.7913 24.0752 52.8177 23.4789 61.1079 23.5534L61.0702 23.5782Z" fill="#CC6D2D"/>
<path d="M176.165 0.024847C178.426 0.0993878 180.687 0.124235 182.948 0.0993878C180.687 0 178.426 -0.024847 176.165 0.024847Z" fill="#CC6D2D"/>
<path d="M31.3724 51.2785C47.9905 52.6451 64.8346 51.7506 81.6035 50.6821C64.91 51.2785 48.1789 51.7257 32.0883 50.061C28.094 49.6386 24.0996 49.1416 20.1806 48.5205C16.6761 47.9738 13.0962 47.626 9.47871 47.4023C9.59175 47.9738 9.7048 48.5702 9.78017 49.1416C12.9078 49.2907 15.9978 49.5392 19.0501 49.9367C23.0822 50.4834 27.1896 50.9306 31.3347 51.2785H31.3724Z" fill="#CC6D2D"/>
<path d="M342.369 31.86C336.189 31.9843 329.707 32.5806 323.98 34.2205C330.235 33.4999 336.264 33.6739 342.18 33.9969C348.097 34.3447 353.9 34.8914 359.778 35.3883C365.355 35.8604 371.083 36.3325 376.924 36.6058C376.924 36.5313 376.924 36.4567 376.924 36.3822C376.924 35.8107 377.15 35.115 377.338 34.3944C371.799 33.6987 366.335 33.0278 360.683 32.5557C354.729 32.034 348.587 31.7109 342.369 31.8352V31.86Z" fill="#CC6D2D"/>
<path d="M357.555 55.6782C355.181 55.5291 352.467 55.4545 349.603 55.4297C348.134 55.7775 346.74 56.1751 345.383 56.6969C352.091 56.3987 357.894 56.9205 363.998 56.9702C365.355 56.9702 366.711 56.9702 368.106 56.9702C368.106 56.9454 368.106 56.9205 368.106 56.8957C368.106 56.7217 368.106 56.5478 368.106 56.3739C367.314 56.3242 366.485 56.2745 365.769 56.2248L357.517 55.6782H357.555Z" fill="#CC6D2D"/>
<path d="M257.208 62.4478C235.013 62.9447 212.968 63.5908 191.037 63.8889C169.106 64.1871 147.287 64.0132 125.356 63.4417C87.824 62.5224 50.1413 60.7085 11.8933 60.0625C13.7775 60.311 15.6993 60.5594 16.4152 61.3794C16.7921 61.8018 16.679 62.2987 16.9428 62.7708C18.1487 64.9325 25.7229 64.8828 29.4158 64.7834C36.3871 64.6095 43.3207 64.5598 50.292 64.6095C76.2178 64.7834 142.954 65.3052 159.12 65.2804C167.523 65.2555 207.203 64.8331 209.313 64.8828C212.215 64.9325 266.063 65.1064 299.262 65.0816C316.181 64.4853 333.252 64.0877 350.435 64.0877C350.774 63.5411 351.076 63.0193 351.452 62.4975C319.799 61.3545 288.296 61.7769 257.283 62.4975L257.208 62.4478Z" fill="#CC6D2D"/>
<path d="M350.844 24.1727C341.047 23.8994 331.211 23.2285 321.225 22.5825C311.24 21.9365 301.141 21.3402 290.891 21.2656C280.679 21.2656 270.316 21.8371 260.481 23.5019C270.505 22.3092 280.717 22.1601 290.702 22.5825C300.688 23.0546 310.561 24.0236 320.359 24.9927C330.194 25.9865 340.029 27.0053 350.053 27.6016C351.108 27.6761 352.163 27.701 353.256 27.7507C354.763 27.7507 356.233 27.7507 357.589 27.7507L365.653 27.8004C366.822 27.8004 368.103 27.8004 369.422 27.8004C368.291 27.5768 367.161 27.3283 366.068 27.1047C364.523 26.7817 362.677 26.1853 362.903 25.2163C363.016 24.7194 363.694 24.3963 364.523 24.1727C360.001 24.2721 355.479 24.2721 350.957 24.123L350.844 24.1727Z" fill="#CC6D2D"/>
<path d="M66.3451 33.1909C86.1285 34.6569 105.837 36.098 125.582 37.5391C145.328 38.9306 165.112 40.2723 184.97 41.5643C192.017 42.0116 199.101 42.4588 206.299 42.7818C208.71 42.8067 211.009 42.8564 213.006 42.8812L221.07 42.9806C224.65 43.0303 228.984 43.0303 233.581 43.0055C237.726 42.8564 241.871 42.6576 245.941 42.3594C256.078 41.614 265.951 40.5705 275.899 40.0238C285.772 39.4524 295.871 39.502 306.083 39.7257C326.356 40.1232 347.647 41.1171 367.882 37.9118C347.458 40.1232 327.11 38.3591 306.874 37.241C296.737 36.6695 286.45 36.2471 276.125 36.5204C265.837 36.7689 255.776 37.564 245.903 38.0361C226.271 39.2536 206.864 37.8373 187.081 36.2968C167.297 34.8308 147.551 33.3897 127.768 31.9486C124.339 31.7001 120.91 31.4765 117.518 31.228L116.652 31.2777C105.648 31.9237 87.7489 31.7001 76.8209 30.7559L68.2669 30.0354C57.7911 29.1409 21.0223 29.3893 10.132 30.5571C9.34064 31.2529 7.79565 31.7001 6.25066 31.9983C4.47957 32.3461 2.52007 32.5697 1.08812 33.1661C0.63593 33.3648 0.221421 33.6133 -0.0423584 33.8866C5.91151 33.2158 11.677 32.5449 17.4424 32.371C26.9762 32.0231 56.6983 32.4952 66.4958 33.1909H66.3451Z" fill="#CC6D2D"/>
<path d="M258.473 53.0703C291.445 52.6728 323.626 52.0764 355.355 51.2316C359.425 51.1322 363.532 51.0329 367.602 50.9086C367.112 50.2378 366.358 49.6166 366.735 48.8463C367.828 46.784 372.99 47.2313 375.327 45.8398C368.619 46.2125 361.874 46.5853 355.167 46.958C323.4 48.7469 291.294 50.7844 258.473 53.0703Z" fill="#CC6D2D"/>
<path d="M119.647 1.29361C119.421 1.24392 119.194 1.19423 118.968 1.14453C118.026 1.14453 117.047 1.19423 116.104 1.19423C116.745 1.26877 117.348 1.34331 117.989 1.393L119.684 1.26877L119.647 1.29361Z" fill="#CC6D2D"/>
<path d="M107.491 11.7781C118.231 12.1011 128.933 12.5484 139.635 13.0453C148.415 12.7968 157.798 12.7223 164.581 12.9211L172.984 13.1695C183.799 13.4677 201.321 13.6665 212.438 13.5671C215.076 13.2938 217.713 13.0205 220.314 12.7968C227.436 12.1508 234.445 12.1508 241.868 12.4241C241.868 12.4241 241.943 12.4241 241.981 12.4241C242.772 12.3247 245.033 12.4241 248.236 12.6726C261.124 13.1944 274.275 13.6416 287.313 13.741C317.121 14.064 347.154 13.1944 377.111 11.1818C377.3 10.3867 377.488 9.49218 377.714 8.57285C347.832 9.88973 318.176 10.2127 288.708 9.44249C273.672 9.06979 258.863 8.37407 243.828 7.52927C236.291 7.13172 228.227 6.95779 220.351 7.52927C212.589 8.07591 205.278 8.99524 198.194 9.3928C184.025 10.2376 169.404 8.99524 154.406 8.07591C139.409 7.15657 124.373 6.51055 109.338 6.0633C108.509 6.0633 107.68 6.03846 106.813 6.01361C96.7142 6.41116 84.7311 6.43601 76.5539 5.98876L68.1884 5.54152C66.3419 5.44213 64.2317 5.34274 62.0461 5.2682C42.0365 5.11912 22.027 5.24335 1.97979 5.46698C1.90442 5.46698 1.82906 5.46698 1.75369 5.46698C2.43198 6.03846 2.09283 6.73417 1.86674 7.45473C1.45223 8.64739 1.97979 10.0637 3.93929 10.66C38.6451 10.6103 73.1248 10.7594 107.529 11.7533L107.491 11.7781Z" fill="#CC6D2D"/>
<path d="M68.1143 28.4757L76.6683 29.0224C81.3409 29.3205 87.2948 29.5193 93.4371 29.5938C85.0338 29.0224 76.5929 28.4757 68.1143 27.9291C58.053 27.3328 47.6902 26.9352 37.1767 27.457C31.1475 27.7303 25.3444 28.4509 19.692 29.2211C20.7471 29.2708 21.8022 29.2957 22.8196 29.3454C23.0457 29.3454 23.2718 29.3454 23.4979 29.3702L28.3213 28.9478C39.2493 27.9788 57.1486 27.7552 68.1143 28.4757Z" fill="#CC6D2D"/>
<path d="M20.2973 4.89197L28.0976 4.76774C37.2922 4.61866 51.2348 4.84228 62.0498 5.26468C64.2354 5.33922 66.3456 5.43861 68.1921 5.53799L76.5576 5.98524C84.7348 6.43249 96.6802 6.40764 106.817 6.01009C110.321 5.86101 113.637 5.68708 116.464 5.46345L124.754 4.79259C135.682 3.8981 153.506 4.14657 164.358 5.31437L173.214 6.25856C184.066 7.42636 201.74 7.20274 212.479 5.73677L221.674 4.49442C232.413 3.0533 250.162 2.58121 261.09 3.4757L269.342 4.14656C280.271 5.01621 298.283 5.71192 309.324 5.68708H317.689C328.73 5.63738 346.818 5.4883 357.859 5.33922L365.433 5.23983C369.126 5.19014 373.648 5.21498 378.359 5.28953C378.622 3.22723 378.434 1.46309 377.002 0.817073C374.816 0.817073 372.669 0.817073 370.671 0.84192C367.845 1.09039 364.981 1.09039 362.117 1.14008C357.822 1.21462 353.526 1.26432 349.23 1.33886C338.754 1.61218 325.942 1.98488 317.35 2.2582L309.588 2.50667C298.547 2.85452 280.723 2.03457 269.945 0.692838L269.456 0.618297C253.553 0.518909 236.521 0.494062 219.677 0.692838L212.14 1.98488C201.589 3.79871 184.104 4.19626 173.327 2.85452L164.434 1.76126C159.799 1.18978 153.807 0.792226 147.665 0.59345C146.648 0.59345 145.592 0.643144 144.575 0.643144C140.128 0.692838 132.102 0.84192 122.493 1.0407L119.742 1.23947L118.046 1.36371L116.351 1.48794C107.495 2.15881 94.1178 2.23335 83.5289 1.7861C69.3979 2.03457 56.7742 2.18366 50.4058 2.05942C41.9649 1.91034 33.524 1.81095 25.083 1.8358C20.8626 1.8358 16.6421 1.88549 12.4216 1.98488C9.18091 2.05942 4.73435 1.68672 1.71973 2.23335C1.19218 2.33274 0.626934 2.45697 0.325473 2.68059C-0.202086 3.0533 -0.0136721 3.57509 0.363155 3.97264C0.777665 4.37019 1.34291 4.74289 1.53132 5.19014C1.68205 5.26468 1.71973 5.36407 1.83278 5.43861C1.90815 5.43861 1.98351 5.43861 2.05888 5.43861C8.72872 5.16529 15.3232 4.94167 20.4104 4.86713L20.2973 4.89197Z" fill="#9E5123"/>
<path d="M365.688 40.8712L357.398 40.9954C346.357 41.1693 328.269 41.3681 317.228 41.393H309.315C298.274 41.4675 280.224 41.8154 269.183 42.2129L261.156 42.5111C253.695 42.7844 243.069 42.9583 233.535 43.008C228.975 43.008 224.604 43.008 221.024 42.9832L212.96 42.8838C210.963 42.8589 208.664 42.8341 206.253 42.7844C195.513 42.6353 181.834 42.4365 172.79 42.2875L165.065 42.1632C154.024 41.9893 135.937 41.6414 124.933 41.3681L116.492 41.1693C105.451 40.9209 87.5143 41.5172 76.5863 42.5111L68.1077 43.2813C57.2174 44.2752 39.5065 43.8777 28.7669 42.4117L19.5723 41.1693C16.3316 40.7221 12.4126 40.4239 8.26749 40.25C8.26749 41.4675 8.45591 42.6602 8.71969 43.8777C12.6387 44.1013 16.3316 44.4243 19.3839 44.8964L28.7292 46.3127C39.3934 47.9277 56.9159 48.1016 67.6555 46.6605L77.0008 45.4182C87.7404 44.0019 105.527 43.4304 116.492 44.1758L124.632 44.7225C135.597 45.4679 153.61 46.1636 164.651 46.263L172.677 46.3375C183.718 46.4369 201.806 46.263 212.809 45.94L220.949 45.6915C231.99 45.3685 250.04 45.1945 261.081 45.3188L269.296 45.3933C280.337 45.5176 298.425 45.5673 309.466 45.5424H317.341C328.382 45.4927 346.432 45.1449 357.473 44.7225L365.425 44.4243C368.628 44.3001 372.434 44.2255 376.503 44.2007C376.579 43.9025 376.579 43.6043 376.579 43.3062C376.579 42.4614 376.654 41.5917 376.654 40.7469C372.622 40.7469 368.816 40.7469 365.613 40.7966L365.688 40.8712Z" fill="#9E5123"/>
<path d="M357.239 51.982C346.236 51.51 328.374 52.1311 317.521 53.3735L308.741 54.3922C297.926 55.6345 280.102 55.9576 269.174 55.0879L261.148 54.4419C251.916 53.7213 237.709 53.3486 226.857 53.4977C224.86 53.5226 222.938 53.5723 221.204 53.6219L213.103 53.9201C202.061 54.3177 184.087 54.0195 173.121 53.2492L164.68 52.6529C164.416 52.6529 164.115 52.6281 163.889 52.6032C152.886 51.8578 135.476 51.3609 124.699 51.5348L115.843 51.659C104.802 51.8081 86.903 53.0008 76.1258 54.268L67.9863 55.237C57.1714 56.529 39.5358 56.4545 28.7586 55.0631L19.8278 53.9201C16.8885 53.5474 13.4217 53.1995 9.69111 52.9262C9.46501 53.8456 9.08818 54.7649 8.48526 55.6594C8.33453 55.8582 8.1838 56.0818 8.03307 56.3054C12.1782 56.6284 16.0972 57.0011 19.3379 57.4235L28.4948 58.641C39.2344 60.0573 56.9453 60.3555 67.8356 59.2871L76.8417 58.4174C87.7321 57.349 105.669 56.2309 116.71 55.9576L124.51 55.7588C135.551 55.4606 153.488 56.0321 164.416 57.0011L172.895 57.7714C183.785 58.7404 201.76 59.3616 212.801 59.1131L220.865 58.9392C231.906 58.6907 249.881 59.1877 260.847 60.0573L269.702 60.753C280.63 61.5978 298.265 60.8773 308.854 59.138L318.426 57.5726C326.754 56.206 339.34 55.4109 349.702 55.4855C352.566 55.4855 355.279 55.5849 357.654 55.7339L365.906 56.2806C366.622 56.3303 367.451 56.38 368.242 56.4296C368.318 55.1376 368.431 53.7959 368.242 52.5038C367.526 52.479 366.735 52.4541 366.057 52.4044L357.352 52.0317L357.239 51.982Z" fill="#9E5123"/>
<path d="M357.701 17.0187C346.66 17.2423 328.572 17.4162 317.531 17.3665H309.58C298.539 17.292 280.64 16.2236 269.825 14.9812L261.535 14.037C256.447 13.4407 251.775 12.9935 248.233 12.7201C245.03 12.4717 242.769 12.3723 241.977 12.4717C241.789 12.4717 241.638 12.5214 241.638 12.5711C241.525 12.9935 232.368 13.4407 221.327 13.5401L213.15 13.6146C212.924 13.6146 212.66 13.6146 212.434 13.6146C201.355 13.6892 183.795 13.5153 172.98 13.2171L164.577 12.9686C157.794 12.7698 148.411 12.8444 139.631 13.0929C134.092 13.2668 128.816 13.4904 124.596 13.7886L116.418 14.36C105.453 15.1303 87.5534 15.0558 76.6254 14.1613L68.2222 13.4904C57.2942 12.5959 39.3572 12.3474 28.3538 12.8941L19.6491 13.3413C15.7678 13.5401 10.9821 13.7637 5.97029 13.9873C5.85724 15.0806 5.36736 16.2236 5.02822 17.2174C4.99053 17.3417 4.95285 17.4908 4.91517 17.615C10.6053 17.3417 16.0693 17.0684 20.4028 16.8944L27.977 16.5466C38.9804 16.0496 56.8043 16.8447 67.5062 18.3107L76.8515 19.5779C87.5911 21.0439 105.227 21.2675 116.079 20.0748L125.349 19.0561C136.202 17.8635 154.101 17.0187 165.142 17.1429L172.829 17.2423C183.87 17.3665 201.921 17.0932 212.962 16.646L220.913 16.2981C231.916 15.826 249.853 16.3478 260.706 17.4411L269.109 18.2859C279.999 19.3791 288.892 20.3482 288.93 20.4227C288.93 20.5221 298.011 20.7457 309.053 20.9445L317.267 21.0936C328.308 21.2923 346.396 21.3669 357.437 21.2427L365.614 21.1433C369.383 21.0936 373.98 21.0687 378.841 21.019C378.841 20.9445 378.916 20.8948 378.916 20.8203C379.369 19.3791 378.803 17.9629 378.125 16.5466C373.528 16.6708 369.194 16.7702 365.577 16.8447L357.701 17.0187Z" fill="#9E5123"/>
<path d="M357.509 27.8067C356.153 27.8067 354.721 27.8067 353.176 27.8067C342.135 27.7819 327.024 27.8316 317.34 27.931L309.05 28.0055C298.008 28.1297 279.996 28.9 269.068 29.7199L261.042 30.3163C250.076 31.1362 232.252 30.8877 221.399 29.7448L213.034 28.8751C202.181 27.7322 193.213 26.5147 193.137 26.1917C193.062 25.8687 183.98 25.9929 172.939 26.465L164.574 26.8377C153.571 27.3098 135.558 28.2043 124.555 28.8254L116.604 29.2727C110.311 29.6205 101.719 29.7199 93.4289 29.6206C87.2866 29.546 81.3327 29.3721 76.66 29.0491L68.1061 28.5024C57.1404 27.7819 17.2411 28.0055 6.31308 28.9745L1.48969 29.3969C3.90139 29.4715 6.35076 29.6454 8.31027 30.2914C8.2349 30.4157 8.08417 30.4902 7.97112 30.5896C18.8614 29.4218 57.5926 29.1982 68.1061 30.0678L76.66 30.7884C87.588 31.7077 105.525 31.9313 116.491 31.3101L117.357 31.2604L124.706 30.8381C135.709 30.192 153.721 29.6951 164.762 29.7199H172.487C183.528 29.7696 201.503 30.6144 212.393 31.6083L221.211 32.4034C232.101 33.3973 250.001 33.6209 260.966 32.8755L269.483 32.304C280.448 31.5586 298.461 30.7387 309.502 30.4405L317.377 30.2417C328.418 29.9436 346.468 29.9684 357.509 30.2914L365.498 30.515C368.89 30.6144 372.997 30.6641 377.331 30.689C376.351 29.4466 373.751 28.7758 371.414 28.3037C370.698 28.1546 369.982 28.0055 369.304 27.8564C367.985 27.8564 366.704 27.8564 365.536 27.8564L357.472 27.8067H357.509Z" fill="#9E5123"/>
<defs>
<radialGradient id="paint0_radial_12_7818" cx="0" cy="0" r="1" gradientUnits="userSpaceOnUse" gradientTransform="translate(217.509 27.5541) scale(560.816 313.658)">
<stop stop-color="#C26123"/>
<stop offset="0.35" stop-color="#BE5F23"/>
<stop offset="0.66" stop-color="#B35A23"/>
<stop offset="0.96" stop-color="#A15223"/>
<stop offset="1" stop-color="#9E5123"/>
</radialGradient>
<radialGradient id="paint1_radial_12_7818" cx="0" cy="0" r="1" gradientUnits="userSpaceOnUse" gradientTransform="translate(217.487 27.5528) scale(560.816 313.658)">
<stop stop-color="#C26123"/>
<stop offset="0.35" stop-color="#BE5F23"/>
<stop offset="0.66" stop-color="#B35A23"/>
<stop offset="0.96" stop-color="#A15223"/>
<stop offset="1" stop-color="#9E5123"/>
</radialGradient>
<radialGradient id="paint2_radial_12_7818" cx="0" cy="0" r="1" gradientUnits="userSpaceOnUse" gradientTransform="translate(217.494 27.5452) scale(560.816 313.658)">
<stop stop-color="#C26123"/>
<stop offset="0.35" stop-color="#BE5F23"/>
<stop offset="0.66" stop-color="#B35A23"/>
<stop offset="0.96" stop-color="#A15223"/>
<stop offset="1" stop-color="#9E5123"/>
</radialGradient>
<radialGradient id="paint3_radial_12_7818" cx="0" cy="0" r="1" gradientUnits="userSpaceOnUse" gradientTransform="translate(217.499 27.5449) scale(560.816 313.658)">
<stop stop-color="#C26123"/>
<stop offset="0.35" stop-color="#BE5F23"/>
<stop offset="0.66" stop-color="#B35A23"/>
<stop offset="0.96" stop-color="#A15223"/>
<stop offset="1" stop-color="#9E5123"/>
</radialGradient>
<radialGradient id="paint4_radial_12_7818" cx="0" cy="0" r="1" gradientUnits="userSpaceOnUse" gradientTransform="translate(217.493 27.5531) scale(560.816 313.658)">
<stop stop-color="#C26123"/>
<stop offset="0.35" stop-color="#BE5F23"/>
<stop offset="0.66" stop-color="#B35A23"/>
<stop offset="0.96" stop-color="#A15223"/>
<stop offset="1" stop-color="#9E5123"/>
</radialGradient>
<radialGradient id="paint5_radial_12_7818" cx="0" cy="0" r="1" gradientUnits="userSpaceOnUse" gradientTransform="translate(217.489 27.5487) scale(560.816 313.658)">
<stop stop-color="#C26123"/>
<stop offset="0.35" stop-color="#BE5F23"/>
<stop offset="0.66" stop-color="#B35A23"/>
<stop offset="0.96" stop-color="#A15223"/>
<stop offset="1" stop-color="#9E5123"/>
</radialGradient>
<radialGradient id="paint6_radial_12_7818" cx="0" cy="0" r="1" gradientUnits="userSpaceOnUse" gradientTransform="translate(217.463 27.0625) scale(572.122 325.252)">
<stop stop-color="#C26123"/>
<stop offset="0.35" stop-color="#BE5F23"/>
<stop offset="0.66" stop-color="#B35A23"/>
<stop offset="0.96" stop-color="#A15223"/>
<stop offset="1" stop-color="#9E5123"/>
</radialGradient>
<radialGradient id="paint7_radial_12_7818" cx="0" cy="0" r="1" gradientUnits="userSpaceOnUse" gradientTransform="translate(217.508 27.5468) scale(560.816 313.658)">
<stop stop-color="#C26123"/>
<stop offset="0.35" stop-color="#BE5F23"/>
<stop offset="0.66" stop-color="#B35A23"/>
<stop offset="0.96" stop-color="#A15223"/>
<stop offset="1" stop-color="#9E5123"/>
</radialGradient>
<radialGradient id="paint8_radial_12_7818" cx="0" cy="0" r="1" gradientUnits="userSpaceOnUse" gradientTransform="translate(217.498 27.5758) scale(560.814 313.658)">
<stop stop-color="#C26123"/>
<stop offset="0.35" stop-color="#BE5F23"/>
<stop offset="0.66" stop-color="#B35A23"/>
<stop offset="0.96" stop-color="#A15223"/>
<stop offset="1" stop-color="#9E5123"/>
</radialGradient>
<radialGradient id="paint9_radial_12_7818" cx="0" cy="0" r="1" gradientUnits="userSpaceOnUse" gradientTransform="translate(217.488 27.5473) scale(560.815 313.658)">
<stop stop-color="#C26123"/>
<stop offset="0.35" stop-color="#BE5F23"/>
<stop offset="0.66" stop-color="#B35A23"/>
<stop offset="0.96" stop-color="#A15223"/>
<stop offset="1" stop-color="#9E5123"/>
</radialGradient>
<radialGradient id="paint10_radial_12_7818" cx="0" cy="0" r="1" gradientUnits="userSpaceOnUse" gradientTransform="translate(217.506 27.5778) scale(560.858 313.682)">
<stop stop-color="#C26123"/>
<stop offset="0.35" stop-color="#BE5F23"/>
<stop offset="0.66" stop-color="#B35A23"/>
<stop offset="0.96" stop-color="#A15223"/>
<stop offset="1" stop-color="#9E5123"/>
</radialGradient>
<radialGradient id="paint11_radial_12_7818" cx="0" cy="0" r="1" gradientUnits="userSpaceOnUse" gradientTransform="translate(217.491 27.55) scale(560.816 313.658)">
<stop stop-color="#C26123"/>
<stop offset="0.35" stop-color="#BE5F23"/>
<stop offset="0.66" stop-color="#B35A23"/>
<stop offset="0.96" stop-color="#A15223"/>
<stop offset="1" stop-color="#9E5123"/>
</radialGradient>
<radialGradient id="paint12_radial_12_7818" cx="0" cy="0" r="1" gradientUnits="userSpaceOnUse" gradientTransform="translate(217.503 27.5513) scale(560.816 313.658)">
<stop stop-color="#C26123"/>
<stop offset="0.35" stop-color="#BE5F23"/>
<stop offset="0.66" stop-color="#B35A23"/>
<stop offset="0.96" stop-color="#A15223"/>
<stop offset="1" stop-color="#9E5123"/>
</radialGradient>
<radialGradient id="paint13_radial_12_7818" cx="0" cy="0" r="1" gradientUnits="userSpaceOnUse" gradientTransform="translate(217.494 27.5461) scale(560.816 313.658)">
<stop stop-color="#C26123"/>
<stop offset="0.35" stop-color="#BE5F23"/>
<stop offset="0.66" stop-color="#B35A23"/>
<stop offset="0.96" stop-color="#A15223"/>
<stop offset="1" stop-color="#9E5123"/>
</radialGradient>
<radialGradient id="paint14_radial_12_7818" cx="0" cy="0" r="1" gradientUnits="userSpaceOnUse" gradientTransform="translate(217.484 27.5688) scale(560.858 313.682)">
<stop stop-color="#C26123"/>
<stop offset="0.35" stop-color="#BE5F23"/>
<stop offset="0.66" stop-color="#B35A23"/>
<stop offset="0.96" stop-color="#A15223"/>
<stop offset="1" stop-color="#9E5123"/>
</radialGradient>
<radialGradient id="paint15_radial_12_7818" cx="0" cy="0" r="1" gradientUnits="userSpaceOnUse" gradientTransform="translate(217.504 27.5485) scale(560.858 313.681)">
<stop stop-color="#C26123"/>
<stop offset="0.35" stop-color="#BE5F23"/>
<stop offset="0.66" stop-color="#B35A23"/>
<stop offset="0.96" stop-color="#A15223"/>
<stop offset="1" stop-color="#9E5123"/>
</radialGradient>
</defs>
</svg>
